<svg width="24" height="24" viewBox="0 0 24 24" fill="none" xmlns="http://www.w3.org/2000/svg">
<path d="M6.16145 16.3292C5.84505 16.6456 5.82998 17.2107 6.16899 17.5421C6.50046 17.8736 7.06547 17.8661 7.38188 17.5497L11.9924 12.9316L16.6104 17.5497C16.9343 17.8736 17.4918 17.8736 17.8233 17.5421C18.1472 17.2031 18.1548 16.6532 17.8233 16.3292L13.2128 11.7112L17.8233 7.10072C18.1548 6.77678 18.1548 6.2193 17.8233 5.88783C17.4843 5.56389 16.9343 5.55636 16.6104 5.8803L11.9924 10.4983L7.38188 5.8803C7.06547 5.56389 6.49293 5.54882 6.16899 5.88783C5.83752 6.2193 5.84505 6.78431 6.16145 7.10072L10.7795 11.7112L6.16145 16.3292Z" fill="white"/>
</svg>
